<svg id="Layer_1" data-name="Layer 1" xmlns="http://www.w3.org/2000/svg" viewBox="0 0 45 45"><defs><style>.cls-1{fill:#32b372;}.cls-2{fill:#207249;}</style></defs><path class="cls-1" d="M459.93,489.25c-.9.05-1.8.06-2.69.06l-.35,0-.36,0h-.07a5.32,5.32,0,0,1-1.36.18,2.4,2.4,0,0,1-.28,0,5.34,5.34,0,0,1-.92.08,4.55,4.55,0,0,1-.53,0,4.21,4.21,0,0,1-.62,0,5.24,5.24,0,0,1-1.29.16h-.26a4.79,4.79,0,0,1-1,.12l-.49,0c-.89.07-1.78.1-2.67.22-6.65.89-13.16,2.23-19.1,5.52-5.66,3.13-9.77,7.5-11.06,14.08,0,.13-.17.25-.26.37v5.24c.6,1.33.7,2.84,1.41,4.15a11,11,0,0,0,2.15,3.13c.58-.13.7-.67.94-1.08a58.75,58.75,0,0,1,17.71-19.07c1.41-.94,2.92-1.73,4.41-2.55.66-.37,1.4-.56,1.8.33s-.24,1.2-.87,1.53c-9.9,5.13-17,13-22.32,22.68a20.52,20.52,0,0,0,11,3.68c7.11.3,12.38-2.89,15.38-9.41a59.26,59.26,0,0,0,3.25-10.81,33.78,33.78,0,0,1,9.95-17C461.7,489.5,461.22,489.18,459.93,489.25Z" transform="translate(-416.5 -489.24)"/><path class="cls-2" d="M421.81,524.34c-1.5,2.81-2.91,5.65-3.21,8.88,0,.42-.37.62-.53.94-1.28.29-1.76-.21-1.51-1.49a6.5,6.5,0,0,0,0-1.25c.18,0,.23-.19.27-.36a33.67,33.67,0,0,1,3-7.42c.19-.35.49-.69.28-1.14.58-.13.7-.67.94-1.08a58.75,58.75,0,0,1,17.71-19.07c1.41-.94,2.92-1.73,4.41-2.55.66-.37,1.4-.56,1.8.33s-.24,1.2-.87,1.53C434.23,506.79,427.09,514.65,421.81,524.34Z" transform="translate(-416.5 -489.24)"/></svg>